# xmcd CD database file
#
# Track frame offsets:
#	150
#	15010
#	30730
#	45725
#	62095
#	78385
#	97197
#	112425
#	132517
#	147805
#	161772
#	181345
#	195287
#	208302
#
# Disc length: 2981 seconds
#
# Revision: 0
# Processed by: cddbd v1.4PL0 Copyright (c) Steve Scherf et al.
# Submitted via: CDex 1.50Beta7
#
DISCID=c60ba30e
DTITLE=Shawn Camp - Lucky Silver Dollar
DYEAR=2001
DGENRE=Country
TTITLE0=Baby's Gone Home to Mama
TTITLE1=How Long Gone
TTITLE2=Walkin' the Line
TTITLE3=Middle of Nowhere
TTITLE4=Tune of a Twenty Dollar Bill
TTITLE5=Lost at Sea
TTITLE6=That Ol' Love Thing
TTITLE7=I Feel More Like I Do Right Now
TTITLE8=Let's Talk About Us
TTITLE9=I Ain't the Hero
TTITLE10=Can't Have One Without The Other
TTITLE11=Been There Done That
TTITLE12=Fallen Star Saloon
TTITLE13=Off to Join the World
EXTD=YEAR: 2001
EXTT0=
EXTT1=
EXTT2=
EXTT3=
EXTT4=
EXTT5=
EXTT6=
EXTT7=
EXTT8=
EXTT9=
EXTT10=
EXTT11=
EXTT12=
EXTT13=
PLAYORDER=
